<svg xmlns="http://www.w3.org/2000/svg" width="191.423" height="157.878"><g stroke="#fff" stroke-miterlimit="10" fill="none"><g stroke-width="4"><path d="M152.177 133.748c-13.89 13.686-32.956 22.131-53.995 22.131-37.666 0-69.01-27.067-75.645-62.811"/><path d="M36.21 33.333c14.009-19.004 36.551-31.333 61.972-31.333 42.491 0 76.938 34.447 76.938 76.939 0 1.041-.021 2.077-.062 3.107"/></g><circle stroke-width="8" cx="158.636" cy="105.692" r="28.787"/><circle stroke-width="11" cx="37.165" cy="64.981" r="31.665"/><g stroke-width="17"><path d="M138.142 125.906c-10.745 9.131-24.665 14.64-39.87 14.64-27.894 0-51.458-18.538-59.043-43.967"/><path d="M52.757 37.42c11.267-12.343 27.486-20.087 45.515-20.087 33.354 0 60.517 26.504 61.574 59.6"/></g></g></svg>
