<svg xmlns="http://www.w3.org/2000/svg" width="120.064" height="120.108"><path fill-rule="evenodd" clip-rule="evenodd" fill="#FFFFFF" d="M104.896 74.229c-.3 8.182-.098 18.438 7.667 22.744 0 0-20.887-2.62-32.346-14.939-.525.016-1.018.127-1.548.127-22.58 0-40.883-14.871-40.883-33.216 0-18.344 18.304-33.215 40.883-33.215 22.578 0 40.882 14.871 40.882 33.215 0 10.188-5.767 19.191-14.655 25.284zm-26.343-43.686c-14.41 0-26.091 8.29-26.091 18.517s11.681 18.517 26.091 18.517c14.409 0 26.09-8.291 26.09-18.517 0-10.227-11.681-18.517-26.09-18.517zm11.414 14.582h7.222v7.176h-7.222v-7.176zm-14.909 0h7.222v7.176h-7.222v-7.176zm-14.909 0h7.222v7.176h-7.222v-7.176zm-26.323 29.859c2.753 0 5.344-.382 7.695-1.027 3.741 3.687 8.189 6.873 13.327 9.367-3.989 2.568-8.722 4.469-13.961 5.369-11.269 13.03-33.151 15.687-33.151 15.687 6.709-3.721 7.75-11.888 7.723-19.322-8.994-4.618-14.945-12.525-14.945-21.532 0-13.871 14.106-25.098 31.758-25.695-1.273 3.521-2.174 7.16-2.174 10.998 0 1.335.344 2.596.505 3.899-8.749.923-15.413 5.496-15.413 11.03 0 6.2 8.344 11.226 18.636 11.226z"/><path fill-rule="evenodd" clip-rule="evenodd" fill="#FFFFFF" d="M88.704 200.567c-3.85 0-7.42-1.06-10.586-2.769l-9.683 9.683 5.896 5.896 6.927-6.927 7.344 13.171c1.853.356 3.636 1.151 5.083 2.599l14.407 14.411c3.98 3.979 3.959 10.45-.045 14.456l-3.511 3.511c-4.005 4.004-10.476 4.025-14.453.046l-14.41-14.409c-1.511-1.512-2.383-3.381-2.715-5.33l-12.85-7.304 6.389-6.391-5.896-5.895-9.552 9.552c1.646 3.116 2.665 6.613 2.665 10.383 0 12.364-10.022 22.386-22.385 22.386-1.719 0-3.376-.235-4.984-.602l11.476-11.476c3.8-3.8 3.8-9.962 0-13.763l-3.225-3.225c-3.8-3.799-9.96-3.799-13.76 0l-11.377 11.381c-.325-1.518-.514-3.085-.514-4.699 0-12.364 10.022-22.387 22.385-22.387 3.942 0 7.59 1.107 10.807 2.896l9.455-9.455-21.809-21.812-3.167 3.167-17.863-24.453 7.713-7.409 24.436 17.574-3.286 3.286 21.809 21.812 9.662-9.662c-1.74-3.189-2.818-6.791-2.818-10.679 0-12.392 10.045-22.438 22.436-22.438 1.679 0 3.3.216 4.874.565l-11.417 11.416c-3.799 3.8-3.799 9.961 0 13.762l3.227 3.226c3.799 3.8 9.96 3.8 13.76 0l11.422-11.423c.352 1.579.57 3.207.57 4.892-.001 12.392-10.045 22.437-22.437 22.437z"/><path fill-rule="evenodd" clip-rule="evenodd" fill="#FFFFFF" d="M35.218 312.912c-1.194 4.38-1.867 9.141-1.722 13.953-2.236.31-4.176 2.086-3.662 7.947.601 6.092 2.99 6.61 5.457 7.877 1.939 10.09 4.71 15.512 5.904 17.152 1.339 1.855 2.54 3.475 2.678 5.711-.594.373-1.188.885-1.643 1.998-1.267 2.899-2.685 4.54-6.195 5.353-3.509.74-10.384 3.48-17.779 5.934-7.396 2.372-17.852 5.652-17.852 9.277 0 2.157-.146 6.467-.29 9.875.89 2.825 3.43 3.567 7.381 3.712h104.205c3.965-.145 6.505-.887 7.467-3.712-.217-3.408-.368-7.718-.368-9.875 0-3.625-10.377-6.905-17.779-9.277-7.39-2.453-14.336-5.193-17.854-5.934-3.509-.812-4.928-2.453-6.114-5.353-.536-1.113-1.202-1.711-1.803-2.077.232-2.157 1.348-3.776 2.699-5.632 1.194-1.641 3.879-7.062 5.891-17.081 2.541-1.338 5.009-1.785 5.536-7.948.521-5.932-1.498-7.637-3.734-7.947.369-16.024-6.281-31.178-22.192-32.292-9.661-.999-14.271-4.826-14.271-4.826-2.084 2.971-2.38 6.609-2.459 7.208m-.001-.002c-.007.05-.022.107-.073.128-.043.021-.086.03-.225.015-3.14-.367-2.988-2.74-2.988-2.74-2.019 1.855-6.26 9.163-8.214 18.555"/><path fill-rule="evenodd" clip-rule="evenodd" fill="#FFFFFF" d="M108.76 532.672l-33.48-25.587 34.842-26.63v48.498c0 1.422-.56 2.671-1.362 3.719zm-53.984-24.021l-43.622-33.34c.925-1.468 2.487-2.43 4.927-2.786h24.968v12.691c0 3.45 2.804 6.247 6.261 6.247h25.046c3.458 0 6.263-2.797 6.263-6.247v-12.691h25.291c2.464.312 4.013 1.238 4.949 2.647l-43.802 33.479c-2.838 2.17-7.441 2.17-10.281 0zm21.909-48.426h-4.132v18.743c0 3.451-2.803 6.248-6.262 6.248h-12.523c-3.458 0-6.261-2.797-6.261-6.248v-18.743h-4.372c-1.718 0-2.553-1.34-1.797-2.362 1.03-1.395 15.854-20.659 16.779-21.838.83-1.058 2.807-1.075 3.635 0 1.261 1.638 16.011 20.829 16.741 21.789.912 1.198-.249 2.411-1.808 2.411zm-65.462 72.334c-.752-1.031-1.286-2.233-1.286-3.605v-48.326l34.615 26.458-33.329 25.473zm43.553-17.661c2.839 2.171 7.442 2.171 10.281 0l6.136-4.689 32.443 24.798h-87.439l32.442-24.798 6.137 4.689z"/></svg>
